<?xml version="1.0" encoding="UTF-8" standalone="no"?>
<svg width="720px" height="302px" viewBox="0 0 720 302" version="1.1" xmlns="http://www.w3.org/2000/svg" xmlns:xlink="http://www.w3.org/1999/xlink">
    <!-- Generator: Sketch 41.1 (35376) - http://www.bohemiancoding.com/sketch -->
    <title>hmd_tagline-logo</title>
    <desc>Created with Sketch.</desc>
    <defs></defs>
    <g id="Page-1" stroke="none" stroke-width="1" fill="none" fill-rule="evenodd">
        <g id="hmd_tagline-logo">
            <g id="hmd.-logo">
                <path d="M15.767092,300.753969 L11.2240953,300.753969 L11.2240953,268.848253 L0.000220855459,268.848253 L0.000220855459,264.872178 L26.9169799,264.872178 L26.9169799,268.848253 L15.767092,268.848253 L15.767092,300.753969 Z M50.7695903,300.753969 L50.7695903,283.524309 C50.7695903,281.332667 50.282604,279.700522 49.3086314,278.627876 C48.3335546,277.556333 46.8074433,277.021113 44.7280892,277.021113 C41.9938986,277.021113 39.9918439,277.781456 38.7230293,279.303246 C37.4542147,280.825036 36.8203595,283.335602 36.8203595,286.838257 L36.8203595,300.753969 L32.3988332,300.753969 L32.3988332,262.564663 L36.8203595,262.564663 L36.8203595,273.756825 C36.8203595,275.228955 36.7375387,276.488101 36.5741057,277.536469 L36.8689477,277.536469 C37.670653,276.227664 38.8091629,275.204677 40.2822688,274.468612 C41.756479,273.732547 43.4184163,273.363963 45.2680808,273.363963 C48.542263,273.363963 51.0070099,274.144169 52.660113,275.707894 C54.3143204,277.270515 55.1414241,279.770046 55.1414241,283.205384 L55.1414241,300.753969 L50.7695903,300.753969 Z M75.0159859,301.244826 C70.9710182,301.244826 67.7995338,300.022097 65.4993242,297.575536 C63.1980104,295.128975 62.0484577,291.763161 62.0484577,287.475885 C62.0484577,283.156607 63.1207109,279.715751 65.2652174,277.155525 C67.4097239,274.595299 70.3084518,273.315186 73.9591926,273.315186 C77.3493239,273.315186 80.0503861,274.406593 82.0645879,276.591613 C84.0776854,278.77553 85.0847863,281.733033 85.0847863,285.464121 L85.0847863,288.139116 L66.6168529,288.139116 C66.6974651,291.199249 67.4759806,293.521109 68.9490865,295.109112 C70.4232967,296.697114 72.5103808,297.48946 75.2125473,297.48946 C76.6525249,297.48946 78.0196202,297.362552 79.3138332,297.10984 C80.6069419,296.856025 82.120906,296.360533 83.85683,295.624468 L83.85683,299.502327 C82.3671599,300.140177 80.9669363,300.590424 79.6572634,300.851964 C78.3475905,301.113504 76.800498,301.244826 75.0159859,301.244826 Z M73.9106044,276.922677 C71.7981219,276.922677 70.1284546,277.602461 68.9004983,278.959823 C67.6725419,280.317184 66.9437189,282.207558 66.7151335,284.628737 L80.4435088,284.628737 C80.4103805,282.109342 79.8295307,280.19469 78.699855,278.885885 C77.5701793,277.578183 75.9733944,276.922677 73.9106044,276.922677 Z M134.054957,300.753969 L129.536254,300.753969 L129.536254,284.015387 L111.116909,284.015387 L111.116909,300.753969 L106.597102,300.753969 L106.597102,264.872178 L111.116909,264.872178 L111.116909,280.039311 L129.536254,280.039311 L129.536254,264.872178 L134.054957,264.872178 L134.054957,300.753969 Z M163.369102,297.538899 C161.142879,300.009738 158.065258,301.244606 154.135135,301.244606 C151.695786,301.244606 149.534716,300.675176 147.651923,299.538524 C145.76913,298.401872 144.320318,296.769727 143.304383,294.643195 C142.289553,292.515558 141.781585,290.045823 141.781585,287.230678 C141.781585,282.845187 142.879237,279.430816 145.073436,276.984255 C147.267635,274.537694 150.345255,273.314965 154.307402,273.314965 C158.106116,273.314965 161.121897,274.561972 163.356955,277.057089 C165.592012,279.553309 166.709541,282.943402 166.709541,287.230678 C166.709541,291.631618 165.596429,295.06806 163.369102,297.538899 Z M146.34998,287.230678 C146.34998,290.61746 147.018068,293.189825 148.352035,294.94998 C149.686002,296.709032 151.654928,297.587455 154.25771,297.587455 C156.829572,297.587455 158.785247,296.709032 160.128048,294.94998 C161.470849,293.189825 162.141145,290.61746 162.141145,287.230678 C162.141145,283.843895 161.466432,281.295808 160.115901,279.585312 C158.764265,277.874816 156.787609,277.020672 154.184828,277.020672 C148.961596,277.020672 146.34998,280.425111 146.34998,287.230678 Z M208.084492,300.753969 L208.084492,283.401815 C208.084492,279.14875 206.258017,277.021113 202.607276,277.021113 C200.102775,277.021113 198.260841,277.749454 197.081473,279.20503 C195.903209,280.660607 195.313525,282.886459 195.313525,285.880379 L195.313525,300.753969 L190.917397,300.753969 L190.917397,283.401815 C190.917397,281.274179 190.471269,279.679555 189.579013,278.615737 C188.685653,277.553022 187.289846,277.021113 185.391593,277.021113 C182.901448,277.021113 181.081599,277.781456 179.927629,279.303246 C178.772555,280.825036 178.196123,283.321256 178.196123,286.788597 L178.196123,300.753969 L173.774596,300.753969 L173.774596,273.805381 L177.335891,273.805381 L177.999561,277.48681 L178.244711,277.48681 C179.014392,276.179108 180.098792,275.155017 181.499016,274.418952 C182.89924,273.682887 184.466209,273.314303 186.202133,273.314303 C190.425994,273.314303 193.176748,274.819539 194.454397,277.831116 L194.699547,277.831116 C195.566404,276.389885 196.75019,275.278614 198.248694,274.49289 C199.746094,273.707165 201.444472,273.314303 203.344934,273.314303 C206.389426,273.314303 208.669759,274.100028 210.184827,275.671477 C211.697687,277.241822 212.456326,279.752389 212.456326,283.205384 L212.456326,300.753969 L208.084492,300.753969 Z M232.340163,301.244826 C228.2963,301.244826 225.123711,300.022097 222.823502,297.575536 C220.523292,295.128975 219.372635,291.763161 219.372635,287.475885 C219.372635,283.156607 220.445993,279.715751 222.589395,277.155525 C224.735006,274.595299 227.632629,273.315186 231.28337,273.315186 C234.673501,273.315186 237.374564,274.406593 239.388765,276.591613 C241.401863,278.77553 242.408964,281.733033 242.408964,285.464121 L242.408964,288.139116 L223.94103,288.139116 C224.022747,291.199249 224.800158,293.521109 226.273264,295.109112 C227.747474,296.697114 229.834558,297.48946 232.536725,297.48946 C233.977807,297.48946 235.344902,297.362552 236.638011,297.10984 C237.932224,296.856025 239.446188,296.360533 241.181007,295.624468 L241.181007,299.502327 C239.691337,300.140177 238.292218,300.590424 236.981441,300.851964 C235.672872,301.113504 234.124675,301.244826 232.340163,301.244826 Z M231.234782,276.922677 C229.122299,276.922677 227.452632,277.602461 226.224676,278.959823 C224.996719,280.317184 224.267896,282.207558 224.039311,284.628737 L237.767686,284.628737 C237.735662,282.109342 237.153708,280.19469 236.024032,278.885885 C234.894357,277.578183 233.297572,276.922677 231.234782,276.922677 Z M283.398301,297.538899 C281.172078,300.009738 278.094457,301.244606 274.164335,301.244606 C271.723882,301.244606 269.562811,300.675176 267.681123,299.538524 C265.797226,298.401872 264.348414,296.769727 263.333583,294.643195 C262.317648,292.515558 261.810784,290.045823 261.810784,287.230678 C261.810784,282.845187 262.907332,279.430816 265.102635,276.984255 C267.29573,274.537694 270.373351,273.314965 274.336602,273.314965 C278.134211,273.314965 281.151097,274.561972 283.386154,277.057089 C285.621211,279.553309 286.73874,282.943402 286.73874,287.230678 C286.73874,291.631618 285.624524,295.06806 283.398301,297.538899 Z M266.37918,287.230678 C266.37918,290.61746 267.045059,293.189825 268.381234,294.94998 C269.714097,296.709032 271.684128,297.587455 274.286909,297.587455 C276.856563,297.587455 278.813342,296.709032 280.157247,294.94998 C281.498944,293.189825 282.170345,290.61746 282.170345,287.230678 C282.170345,283.843895 281.495632,281.295808 280.1451,279.585312 C278.793465,277.874816 276.816809,277.020672 274.214027,277.020672 C268.989691,277.020672 266.37918,280.425111 266.37918,287.230678 Z M306.074746,277.241712 L299.271294,277.241712 L299.271294,300.753859 L294.850872,300.753859 L294.850872,277.241712 L290.135607,277.241712 L290.135607,275.180289 L294.850872,273.658499 L294.850872,272.112431 C294.850872,268.840418 295.566443,266.386132 296.999795,264.749574 C298.432043,263.113015 300.638389,262.295288 303.618833,262.295288 C305.338193,262.295288 307.081847,262.597659 308.849795,263.203506 L307.671531,266.663122 C306.148733,266.173148 304.812557,265.927057 303.667421,265.927057 C302.177751,265.927057 301.07237,266.418135 300.352381,267.400291 C299.631288,268.381343 299.271294,269.935135 299.271294,272.062772 L299.271294,273.805271 L306.074746,273.805271 L306.074746,277.241712 Z M354.11136,300.753969 L348.830706,300.753969 L329.600822,270.958233 L329.40426,270.958233 L329.527939,272.946822 C329.723396,275.924189 329.821677,278.509797 329.821677,280.702542 L329.821677,300.753969 L325.647509,300.753969 L325.647509,264.872178 L330.87847,264.872178 L331.983852,266.614676 L343.772012,284.825389 L350.034369,294.568595 L350.23093,294.568595 C350.197802,294.176836 350.132649,292.773126 350.034369,290.359671 C349.936088,287.94732 349.8875,286.200407 349.8875,285.120036 L349.8875,264.872178 L354.11136,264.872178 L354.11136,300.753969 Z M386.732153,287.230678 C386.732153,291.631618 385.619042,295.06806 383.391714,297.538899 C381.165491,300.009738 378.087871,301.244606 374.157748,301.244606 C371.718399,301.244606 369.557329,300.675176 367.674536,299.538524 C365.791743,298.401872 364.342931,296.769727 363.326996,294.643195 C362.312165,292.515558 361.804198,290.045823 361.804198,287.230678 C361.804198,282.845187 362.901849,279.430816 365.096048,276.984255 C367.290247,274.537694 370.367868,273.314965 374.330015,273.314965 C378.128729,273.314965 381.145614,274.561972 383.379567,277.057089 C385.614625,279.553309 386.732153,282.943402 386.732153,287.230678 Z M366.372593,287.230678 C366.372593,290.61746 367.040681,293.189825 368.374648,294.94998 C369.708615,296.709032 371.677541,297.587455 374.280323,297.587455 C376.852184,297.587455 378.807859,296.709032 380.150661,294.94998 C381.493462,293.189825 382.163758,290.61746 382.163758,287.230678 C382.163758,283.843895 381.489045,281.295808 380.138514,279.585312 C378.786878,277.874816 376.810222,277.020672 374.20744,277.020672 C368.984209,277.020672 366.372593,280.425111 366.372593,287.230678 Z M398.169264,286.887144 L399.667768,284.972492 L401.386023,282.911068 L410.007116,273.805712 L415.164091,273.805712 L404.260457,285.316798 L415.926043,300.7543 L410.5968,300.7543 L401.239155,288.188224 L398.169264,290.863219 L398.169264,300.7543 L393.79743,300.7543 L393.79743,262.564995 L398.169264,262.564995 L398.169264,282.518206 L397.972702,286.887144 L398.169264,286.887144 Z M421.218844,300.753748 L425.639266,300.753748 L425.639266,273.80516 L421.218844,273.80516 L421.218844,300.753748 Z M420.874309,266.51624 C420.874309,265.535188 421.12498,264.823401 421.623009,264.380879 C422.123247,263.939461 422.740538,263.718752 423.478195,263.718752 C424.165055,263.718752 424.766887,263.939461 425.282584,264.380879 C425.798282,264.823401 426.056682,265.535188 426.056682,266.51624 C426.056682,267.480739 425.798282,268.192526 425.282584,268.651601 C424.766887,269.110676 424.165055,269.33911 423.478195,269.33911 C422.740538,269.33911 422.123247,269.110676 421.623009,268.651601 C421.12498,268.192526 420.874309,267.480739 420.874309,266.51624 Z M450.439125,300.753969 L449.579997,296.925769 L449.383436,296.925769 C448.040635,298.610883 446.702251,299.751949 445.368284,300.348968 C444.034317,300.945986 442.351398,301.245047 440.320632,301.245047 C437.668158,301.245047 435.588804,300.549813 434.08257,299.158242 C432.57744,297.767774 431.823218,295.803463 431.823218,293.268618 C431.823218,287.802756 436.13763,284.940158 444.766453,284.678618 L449.333743,284.506464 L449.333743,282.910737 C449.333743,280.865867 448.892033,279.35732 448.007506,278.382889 C447.124085,277.408458 445.707297,276.922898 443.759352,276.922898 C442.334834,276.922898 440.98872,277.135882 439.718801,277.560747 C438.449986,277.985612 437.259576,278.461241 436.14536,278.984321 L434.794829,275.671477 C436.154194,274.951965 437.636134,274.386949 439.240649,273.977534 C440.845164,273.568119 442.433115,273.363963 444.004501,273.363963 C447.263224,273.363963 449.686008,274.083474 451.273959,275.523602 C452.863014,276.963729 453.656989,279.25469 453.656989,282.395381 L453.656989,300.753969 L450.439125,300.753969 Z M441.327733,297.686112 C443.80021,297.686112 445.744842,297.018467 447.160526,295.685383 C448.577314,294.3523 449.285155,292.458615 449.285155,290.00433 L449.285155,287.574322 L445.306444,287.746475 C442.212259,287.861244 439.957325,288.352321 438.540537,289.218605 C437.123749,290.084888 436.415908,291.452182 436.415908,293.317174 C436.415908,294.724195 436.845472,295.803463 437.705704,296.557184 C438.564831,297.309803 439.772911,297.686112 441.327733,297.686112 Z M499.681169,275.425828 C499.681169,279.0896 498.427814,281.900331 495.923313,283.855814 C493.417708,285.8124 489.889542,286.789039 485.337711,286.789039 L481.212131,286.789039 L481.212131,300.75441 L476.693428,300.75441 L476.693428,264.871516 L486.197943,264.871516 C495.18676,264.871516 499.681169,268.38962 499.681169,275.425828 Z M481.212131,282.911179 L484.822013,282.911179 C488.391037,282.911179 490.977255,282.334024 492.582874,281.180819 C494.187389,280.027613 494.990199,278.17476 494.990199,275.622259 C494.990199,273.314744 494.243707,271.588799 492.755141,270.443318 C491.264367,269.297838 488.938759,268.725097 485.780526,268.725097 L481.212131,268.725097 L481.212131,282.911179 Z M524.511064,300.753969 L524.511064,283.524309 C524.511064,281.332667 524.024078,279.700522 523.050105,278.627876 C522.076133,277.556333 520.548917,277.021113 518.469563,277.021113 C515.735373,277.021113 513.733318,277.781456 512.464503,279.303246 C511.195689,280.825036 510.561834,283.335602 510.561834,286.838257 L510.561834,300.753969 L506.140307,300.753969 L506.140307,262.564663 L510.561834,262.564663 L510.561834,273.756825 C510.561834,275.228955 510.479013,276.488101 510.31558,277.536469 L510.610422,277.536469 C511.412127,276.227664 512.550637,275.204677 514.023743,274.468612 C515.497953,273.732547 517.15989,273.363963 519.009555,273.363963 C522.284841,273.363963 524.748484,274.144169 526.401587,275.707894 C528.055794,277.270515 528.882898,279.770046 528.882898,283.205384 L528.882898,300.753969 L524.511064,300.753969 Z M560.717556,287.230678 C560.717556,291.631618 559.604445,295.06806 557.377117,297.538899 C555.150894,300.009738 552.073273,301.244606 548.143151,301.244606 C545.703802,301.244606 543.542731,300.675176 541.659939,299.538524 C539.777146,298.401872 538.328334,296.769727 537.312399,294.643195 C536.297568,292.515558 535.7896,290.045823 535.7896,287.230678 C535.7896,282.845187 536.886148,279.430816 539.081451,276.984255 C541.27565,274.537694 544.352167,273.314965 548.315418,273.314965 C552.113027,273.314965 555.129913,274.561972 557.36497,277.057089 C559.600027,279.553309 560.717556,282.943402 560.717556,287.230678 Z M540.357996,287.230678 C540.357996,290.61746 541.024979,293.189825 542.36005,294.94998 C543.694017,296.709032 545.662944,297.587455 548.265725,297.587455 C550.836483,297.587455 552.793262,296.709032 554.136063,294.94998 C555.47776,293.189825 556.149161,290.61746 556.149161,287.230678 C556.149161,283.843895 555.474447,281.295808 554.123916,279.585312 C552.772281,277.874816 550.795625,277.020672 548.192843,277.020672 C542.969611,277.020672 540.357996,280.425111 540.357996,287.230678 Z M586.152706,300.753969 L586.152706,283.524309 C586.152706,281.332667 585.66572,279.700522 584.691747,278.627876 C583.716671,277.556333 582.190559,277.021113 580.111205,277.021113 C577.343886,277.021113 575.334102,277.785871 574.081851,279.315385 C572.829601,280.844899 572.203475,283.335602 572.203475,286.788597 L572.203475,300.753969 L567.781949,300.753969 L567.781949,273.805381 L571.343243,273.805381 L572.006914,277.48681 L572.252064,277.48681 C573.086897,276.161451 574.257431,275.135154 575.763665,274.406813 C577.2699,273.678473 578.931837,273.314303 580.749477,273.314303 C584.056788,273.314303 586.512701,274.116581 588.117216,275.720033 C589.72173,277.323485 590.52454,279.818602 590.52454,283.205384 L590.52454,300.753969 L586.152706,300.753969 Z M610.399102,301.244826 C606.355238,301.244826 603.18265,300.022097 600.88244,297.575536 C598.582231,295.128975 597.431574,291.763161 597.431574,287.475885 C597.431574,283.156607 598.504931,279.715751 600.648333,277.155525 C602.793944,274.595299 605.691568,273.315186 609.342309,273.315186 C612.73244,273.315186 615.433502,274.406593 617.447704,276.591613 C619.460801,278.77553 620.467902,281.733033 620.467902,285.464121 L620.467902,288.139116 L601.999969,288.139116 C602.081685,291.199249 602.859097,293.521109 604.332202,295.109112 C605.806413,296.697114 607.893497,297.48946 610.595663,297.48946 C612.036745,297.48946 613.40384,297.362552 614.696949,297.10984 C615.991162,296.856025 617.505126,296.360533 619.239946,295.624468 L619.239946,299.502327 C617.750276,300.140177 616.351157,300.590424 615.040379,300.851964 C613.730707,301.113504 612.183614,301.244826 610.399102,301.244826 Z M609.29372,276.922677 C607.181238,276.922677 605.511571,277.602461 604.283614,278.959823 C603.055658,280.317184 602.326835,282.207558 602.09825,284.628737 L615.826625,284.628737 C615.794601,282.109342 615.212647,280.19469 614.082971,278.885885 C612.953295,277.578183 611.35651,276.922677 609.29372,276.922677 Z M645.052096,293.317395 C645.052096,295.837893 644.110148,297.788962 642.227355,299.170602 C640.344562,300.553344 637.700922,301.245268 634.295331,301.245268 C630.741767,301.245268 627.917026,300.680252 625.822212,299.551325 L625.822212,295.526693 C628.784988,296.966821 631.642857,297.686332 634.393612,297.686332 C636.619835,297.686332 638.240914,297.325473 639.255745,296.605961 C640.270576,295.886449 640.778543,294.920847 640.778543,293.710257 C640.778543,292.647542 640.291557,291.747049 639.317584,291.00988 C638.342508,290.273815 636.611001,289.43181 634.123064,288.482761 C631.585435,287.500605 629.800923,286.66191 628.769528,285.966676 C627.738133,285.271442 626.980598,284.489028 626.498029,283.622745 C626.014356,282.756461 625.772519,281.700368 625.772519,280.456672 C625.772519,278.248477 626.673609,276.504875 628.474686,275.229176 C630.274658,273.952373 632.748239,273.314524 635.891012,273.314524 C638.953173,273.314524 641.817668,273.92037 644.486706,275.13096 L642.989306,278.640236 C640.255116,277.494755 637.790369,276.923118 635.597274,276.923118 C633.761965,276.923118 632.370576,277.212247 631.422002,277.793816 C630.471219,278.375385 629.997484,279.173248 629.997484,280.187407 C629.997484,281.168459 630.406067,281.982876 631.22544,282.62845 C632.04371,283.275128 633.950797,284.170104 636.947805,285.316688 C639.190593,286.150968 640.848113,286.928968 641.920366,287.64848 C642.992619,288.366888 643.782178,289.176891 644.291249,290.077384 C644.798113,290.977878 645.052096,292.058249 645.052096,293.317395 Z" id="thnp" fill="#FFFFFF"></path>
                <g>
                    <path d="M696.161343,199.733872 C694.100087,198.006258 692.444233,196.217928 690.804949,194.100634 C690.603905,193.840111 690.517743,193.294781 691.051283,192.878608 L694.09125,190.512935 C694.532001,190.170724 695.151703,190.197217 695.556001,190.581377 C696.550176,191.526322 698.28446,193.163416 698.514225,193.351081 C700.177811,194.707783 701.997151,195.872405 703.922537,196.821765 C706.501869,198.093466 709.278932,198.951202 712.122273,199.397181 C712.623779,199.476662 713.138541,199.268024 713.443421,198.861786 C717.762559,193.132507 720.19387,185.903018 719.797305,178.089562 C718.994232,162.28713 706.353848,149.262128 690.568556,148.024648 C670.964527,146.486905 654.728543,162.706615 656.255154,182.295449 C657.46142,197.765606 670.020061,210.287226 685.501577,211.470615 C692.846322,212.031399 699.707235,210.091834 705.340894,206.424654 C705.78054,206.138742 705.702111,205.478606 705.219383,205.273279 C701.951861,203.879044 698.883174,202.016753 696.161343,199.733872" id="." fill="#FFFFFF"></path>
                    <path d="M598.775183,129.207931 L598.770764,129.207931 C598.770764,129.290724 598.775183,129.200204 598.775183,129.281893 C598.775183,152.426413 586.131485,175.776259 557.88476,175.776259 C532.844803,175.776259 516.662946,157.526464 516.662946,129.281893 C516.662946,129.22449 516.66626,129.217866 516.66626,129.159359 L516.659632,129.159359 C516.659632,129.200204 516.660737,129.241048 516.661841,129.281893 L516.656318,129.281893 L516.656318,129.159359 L516.659632,129.159359 C516.658527,129.119618 516.656318,129.078774 516.656318,129.037929 C516.656318,105.893409 529.300016,82.5435627 557.546741,82.5435627 C582.586698,82.5435627 598.76966,100.793358 598.76966,129.037929 C598.76966,129.095333 598.765241,129.150528 598.765241,129.207931 L598.770764,129.207931 L598.775183,129.159359 L598.775183,129.207931 Z M645.088278,1.95170806 C645.088278,1.81482356 645.073918,1.68125078 645.047407,1.55209363 C644.868455,0.666759995 644.086371,0 643.136381,0 L600.876206,0 C599.798079,0 598.923204,0.874294563 598.923204,1.95170806 L598.923204,58.907804 C598.923204,60.6122368 596.90061,61.4865314 595.640217,60.3373639 C570.79799,37.6586928 529.951753,38.1874644 503.178617,57.33584 C473.641675,78.4613136 462.414124,117.953596 471.366118,152.433036 C479.893932,185.284213 508.357165,209.735759 541.63552,215.068735 C575.898109,220.55957 612.400905,207.335865 631.439359,177.603226 C640.687396,163.160807 645.086069,146.089985 645.086069,129.013643 C645.086069,128.574288 645.063976,128.143764 645.056244,127.706617 L645.088278,127.706617 L645.088278,1.95170806 L645.088278,1.95170806 Z" id="d" fill="#FFFFFF"></path>
                    <path d="M434.399294,57.4859714 C423.857724,48.1778253 408.923005,43.0523838 392.345687,43.0523838 C359.324713,43.0523838 344.457376,61.0526958 339.68644,68.5736161 C338.823717,69.9347338 336.849727,69.8795384 336.012411,68.5018621 C326.280541,52.4929988 309.184043,43.0523838 289.549084,43.0523838 C261.581834,43.0523838 244.818937,60.5305477 239.049407,67.813024 C238.069592,69.0482962 236.108858,68.6519935 235.668107,67.1374327 L230.540373,49.5124491 C230.299561,48.6834148 229.538465,48.1126947 228.673533,48.1126947 L195.255993,48.1126947 C194.182284,48.1126947 193.311828,48.9825737 193.311828,50.0555715 L193.311828,209.535952 C193.311828,210.60895 194.182284,211.478829 195.255993,211.478829 L239.046093,211.478829 C240.119802,211.478829 240.990258,210.60895 240.990258,209.535952 L240.990258,117.149952 C240.990258,101.686419 251.335202,86.0308058 271.111554,86.0308058 C289.269611,86.0308058 300.550184,97.6957939 300.550184,116.473257 L300.550184,209.535952 C300.550184,210.60895 301.419535,211.478829 302.494349,211.478829 L345.592945,211.478829 C346.666654,211.478829 347.53711,210.60895 347.53711,209.535952 L347.53711,116.811052 C347.53711,101.513105 358.00246,86.0308058 378.004158,86.0308058 C395.949019,86.0308058 407.097036,97.6957939 407.097036,116.473257 L407.097036,209.535952 C407.097036,210.60895 407.967492,211.478829 409.041201,211.478829 L451.116901,211.478829 C452.19061,211.478829 453.06217,210.60895 453.06217,209.535952 L453.06217,105.006972 C453.06217,84.4124777 446.783402,68.4223808 434.399294,57.4859714" id="m" fill="#FFFFFF"></path>
                    <path d="M95.2154649,42.9762142 C78.418324,43.1627745 61.7581583,48.6392585 49.2337611,60.074634 C47.9799958,61.2204897 45.9651342,60.3495069 45.9651342,58.6516975 L45.9651342,1.94287681 C45.9651342,0.869878934 45.0946787,0 44.0209695,0 L1.94416467,0 C0.870455547,0 0,0.869878934 0,1.94287681 L0,209.422249 C0,210.496351 0.870455547,211.36623 1.94416467,211.36623 L44.0209695,211.36623 C45.0946787,211.36623 45.9651342,210.496351 45.9651342,209.422249 C45.9651342,209.422249 45.9651342,129.757677 45.9706574,129.757677 C45.9695528,129.675988 45.9651342,129.596506 45.9651342,129.514817 C45.9651342,106.470753 58.5547051,83.2213617 86.6777099,83.2213617 C111.610517,83.2213617 127.721677,101.392779 127.721677,129.514817 C127.721677,129.57222 127.718363,129.627416 127.728305,129.684819 L127.728305,209.423353 C127.728305,210.496351 128.597656,211.36623 129.67247,211.36623 L173.792857,211.36623 C174.866566,211.36623 175.737022,210.496351 175.737022,209.423353 C175.737022,209.423353 175.737022,129.684819 175.725975,129.684819 C175.728184,129.514817 175.737022,129.349231 175.737022,129.179229 C175.738126,83.05136 144.047137,42.6903022 95.637437,42.9729024 C95.4971478,42.9740064 95.355754,42.9751103 95.2154649,42.9762142" id="h" fill="#FFFFFF"></path>
                </g>
            </g>
        </g>
    </g>
</svg>